<mxfile host="app.diagrams.net" modified="2023-11-27T12:36:30.662Z" agent="Mozilla/5.0 (X11; Linux x86_64) AppleWebKit/537.36 (KHTML, like Gecko) Chrome/119.0.0.0 Safari/537.36 OPR/105.0.0.0" version="22.1.4" etag="1bJSlEmuEzBiAk-nGO0i" type="github">
  <diagram name="Page-1" id="QscOOoY9CNHuDJL_09SR">
    <mxGraphModel>
      <root>
        <mxCell id="0" />
        <mxCell id="1" parent="0" />
      </root>
    </mxGraphModel>
  </diagram>
</mxfile>
